<svg xmlns="http://www.w3.org/2000/svg" viewBox="0 0 64 64">
  <defs>
    <linearGradient id="g" x1="10" y1="9" x2="55" y2="57" gradientUnits="userSpaceOnUse">
      <stop offset="0" stop-color="#f0ead8"/>
      <stop offset=".48" stop-color="#6ab294"/>
      <stop offset="1" stop-color="#202a25"/>
    </linearGradient>
  </defs>
  <rect width="64" height="64" rx="15" fill="#0d0d0c"/>
  <path d="M13 18c0-4.4 3.6-8 8-8h21.5c3 0 5.7 1.7 7.1 4.4L56 27v19c0 4.4-3.6 8-8 8H21c-4.4 0-8-3.6-8-8V18Z" fill="url(#g)"/>
  <path d="M42 10v12c0 3.3 2.7 6 6 6h8" fill="#0d0d0c" opacity=".28"/>
  <path d="M23 43 32 19l9 24h-5.2l-1.4-4.2h-5L28 43h-5Zm8-9h2l-1-3.1-1 3.1Z" fill="#f3eddf"/>
</svg>
